<svg width="100" height="40" viewBox="0 0 100 40" fill="none" xmlns="http://www.w3.org/2000/svg">
<path d="M29.345 7.67969C21.9197 7.67969 16.9355 13.2487 16.9355 20.4705C16.9355 27.667 21.7671 33.2614 29.4975 33.2614C35.7785 33.2614 39.72 29.7776 41.0678 25.5818H34.8376C34.2782 27.0567 32.6507 28.8367 29.4975 28.8367C25.3272 28.8367 23.1148 25.5818 22.9368 22.5557H41.5255V21.6148C41.5255 19.5805 41.2966 17.5208 40.7372 15.7661C39.186 10.9346 35.4734 7.67969 29.345 7.67969ZM22.9114 18.1311C23.2928 14.8761 25.6069 12.0789 29.3195 12.0789C33.1848 12.0789 35.3717 14.8761 35.4988 18.1311H22.9114Z" fill="#051A24"/>
<path d="M50.4765 0H44.7041V32.5493H50.4765V0Z" fill="#051A24"/>
<path d="M85.9248 27.8958L99.4276 13.0197V8.36621H78.9826V13.0197H92.0532L78.5249 27.8958V32.5493H99.9108V27.8958H85.9248Z" fill="#051A24"/>
<path d="M10.0954 8.36621L5.77241 14.1386V8.36621H0V32.5493H5.77241V21.3605L12.7146 13.0706H16.6561V8.36621H10.0954Z" fill="#051A24"/>
<path d="M71.0998 8.36621L65.124 24.6154L59.4787 8.36621H53.4011L62.3268 32.1933L61.3096 35.0159H50.6548V40H65.2511L77.0502 8.36621H71.0998Z" fill="#051A24"/>
</svg>
